Coordinates
version=1
nRows=9
nColumns=36
inDegrees=yes

Units are S.I. units (second, meters, Newtons, ...)
If the header above contains a line with 'inDegrees', this indicates whether rotational values are in degrees (yes) or radians (no).

endheader
time	pelvis_tilt	pelvis_list	pelvis_rotation	pelvis_tx	pelvis_ty	pelvis_tz	hip_flexion_r	hip_adduction_r	hip_rotation_r	knee_angle_r	knee_angle_r_beta	ankle_angle_r	subtalar_angle_r	mtp_angle_r	hip_flexion_l	hip_adduction_l	hip_rotation_l	knee_angle_l	knee_angle_l_beta	ankle_angle_l	subtalar_angle_l	mtp_angle_l	lumbar_extension	lumbar_bending	lumbar_rotation	arm_flex_r	arm_add_r	arm_rot_r	elbow_flex_r	pro_sup_r	arm_flex_l	arm_add_l	arm_rot_l	elbow_flex_l	pro_sup_l
      3.35000000	    -20.70169960	      3.23393828	      6.01289808	      0.18449355	      1.09517581	     -0.01676332	     44.32853277	    -10.23057279	     -5.04721590	     25.72664956	      0.44901474	    -16.13648414	    -10.30072241	     -7.49999987	     44.13956505	     -4.44182245	    -10.33728687	     18.43147145	      0.32168986	    -17.43480859	      6.92522270	     -7.49999987	    -11.80575365	     -3.47147627	     -3.40047018	     80.13119769	    -13.70061228	     13.63401291	    109.89684744	     96.09675789	     71.39738625	    -18.76845447	     18.73445097	    114.85498168	     94.52410532
      3.36666670	    -20.66854635	      3.02188268	      6.06737983	      0.20270323	      1.06965724	     -0.02145667	     43.98863547	    -10.69872535	     -6.43561719	     21.83146084	      0.38103087	    -18.06363049	     -8.33644465	     -7.49999987	     44.76267597	     -4.64897260	    -11.45997941	     16.57590642	      0.28930414	    -19.14949160	      6.71079810	     -7.49999987	    -11.99380942	     -3.55306530	     -2.76041569	     79.38078222	    -14.91032272	     12.87422782	    111.51202124	     96.34145198	     71.17595729	    -16.76579349	     18.68506165	    115.21943839	     94.64091931
      3.38333330	    -20.20343012	      2.97242468	      6.60193664	      0.22484348	      1.03294998	     -0.02230369	     42.74074910	    -11.17647370	     -8.15263376	     18.11813798	      0.31622116	    -18.76546435	     -6.84900854	     -7.49999987	     45.07427952	     -4.46269710	    -11.45180914	     17.09037258	      0.29828327	    -21.18779871	      4.97773915	     -7.49999987	    -11.82674147	     -3.65393049	     -3.04885405	     77.95579024	    -15.31013666	     12.19299472	    113.24855200	     96.50168228	     69.57430257	    -15.81051294	     17.83830789	    116.91421694	     94.77075493
      3.40000000	    -19.51289590	      2.57415903	      6.89096804	      0.24699228	      0.99486571	     -0.01840015	     41.74034972	    -10.72518344	     -9.49922209	     16.02657436	      0.27971649	    -20.07056087	     -6.45349192	     -7.49999987	     44.76148263	     -4.89315419	    -11.27953576	     17.49111054	      0.30527747	    -23.22177315	      3.22132198	     -7.49999987	    -11.64269373	     -3.70872800	     -3.27882503	     76.99717351	    -15.63048981	     12.02812670	    115.52069001	     96.67751324	     68.87050635	    -15.99242679	     18.08865175	    118.39547044	     95.01126615
      3.41666670	    -18.27278905	      1.92874579	      6.54452378	      0.25219033	      0.95222854	     -0.01630522	     42.26540583	     -9.85355730	     -8.81883361	     18.58592858	      0.32438565	    -21.13880376	     -7.45273252	     -7.49999987	     45.09222483	     -6.07594309	    -10.37471511	     19.42984631	      0.33911479	    -23.62834071	      3.38031013	     -7.49999987	    -12.51458032	     -3.00873749	     -2.46723720	     79.06485228	    -16.06271716	     12.34398672	    115.11019909	     95.58507200	     70.27761490	    -15.15100923	     18.24821124	    118.80767997	     94.01259399
      3.43333330	    -17.28139387	      1.61636662	      5.89986975	      0.26165842	      0.90524670	     -0.01689453	     43.80627186	     -9.52315329	     -7.20638110	     22.26372729	      0.38857534	    -18.15001071	     -9.75134193	     -7.49999987	     46.16128007	     -7.22758490	     -9.21392785	     22.66440489	      0.39556849	    -19.75756396	      3.50300177	     -7.49999987	    -13.26727774	     -2.64824093	     -1.84278366	     81.94910139	    -15.85806090	     13.13665431	    113.33627263	     93.71521082	     72.49565352	    -14.73567773	     18.40329334	    118.26618625	     92.21903054
      3.45000000	    -17.29045697	      1.19664927	      5.24699542	      0.27094935	      0.86020747	     -0.01714046	     48.34125045	     -8.98333896	     -5.30320324	     32.20597866	      0.56210037	     -9.57445969	    -14.64363244	     -7.49999987	     49.48561152	     -8.27048936	     -6.66787936	     30.15693306	      0.52633777	    -10.11203730	      0.81241512	     -7.49999987	    -13.57720541	     -2.18295248	     -1.94304888	     84.19114961	    -14.74763601	     13.41255442	    112.03483442	     96.10334033	     74.38749691	    -15.10745551	     16.97505466	    117.69481986	     94.23154661
      3.46666670	    -17.61068696	      0.87536595	      4.99691721	      0.29060749	      0.82261709	     -0.01371623	     54.03655064	     -8.31132194	     -3.35482514	     44.77917206	      0.78154399	      0.55457464	    -20.25183855	     -7.49999987	     54.10220507	     -9.68130745	     -5.09960657	     40.73242962	      0.71091501	      1.05254160	     -0.74927588	     -7.49999987	    -13.63471270	     -2.22112126	     -2.31166436	     84.20940005	    -13.82075903	     12.73888087	    113.64975008	     96.91298956	     75.04005025	    -14.55641347	     16.12100657	    118.41788363	     94.80792796
      3.48333330	    -17.83755022	      0.43520809	      4.60095570	      0.30949415	      0.78792790	     -0.02160237	     60.28618231	     -7.60992225	     -1.32150498	     58.19944130	      1.01577187	      8.93561640	    -23.59137803	     -7.49999987	     59.91622408	    -10.24067054	     -1.98676316	     54.08339620	      0.94393333	     12.03528285	     -2.23103462	     -7.49999987	    -13.97911860	     -1.83627506	     -2.54084093	     83.36334557	    -13.38630986	     12.04618042	    116.96801047	     94.46450386	     73.76410306	    -13.33751276	     15.15973590	    120.91477886	     92.52712350
